# xmcd
# 
# Track frame offsets:
#     150
#     16332
#     30823
#     51817
#     66914
#     84189
#     103125
#     118899
#     136101
#     150602
#     167497
#     182465
#     197876
#     212403
#     230359
# 
# Disc length: 3297
# 
# Revision: 0
# Processed by: cddbd v1.5.2PL0 Copyright (c) Steve Scherf et al.
# Submitted via: BonkEnc v1.0.8
# 
DISCID=b60cdf0f
DTITLE=Eduardo Costa - No boteco
DYEAR=2005
DGENRE=Country
TTITLE0=Entre ele e eu
TTITLE1=Tô indo embora
TTITLE2=Me esqueça
TTITLE3=Diz pro meu olhar
TTITLE4=Linda demais
TTITLE5=É de madrugada
TTITLE6=As paredes azuis
TTITLE7=Imperfeito
TTITLE8=Você só me faz feliz
TTITLE9=Imã
TTITLE10=Você decide
TTITLE11=Página de amigos
TTITLE12=Nos bares da cidade
TTITLE13=Saudade de nós dois
TTITLE14=Eu e a solidão
EXTD=by pepinho
EXTT0=
EXTT1=
EXTT2=
EXTT3=
EXTT4=
EXTT5=
EXTT6=
EXTT7=
EXTT8=
EXTT9=
EXTT10=
EXTT11=
EXTT12=
EXTT13=
EXTT14=
PLAYORDER=
